<?xml version="1.0" encoding="utf-8"?>
<!-- Generator: Adobe Illustrator 22.1.0, SVG Export Plug-In . SVG Version: 6.00 Build 0)  -->
<svg version="1.1" id="Lager_1" xmlns="http://www.w3.org/2000/svg" xmlns:xlink="http://www.w3.org/1999/xlink" x="0px" y="0px"
	 viewBox="0 0 256 36" style="enable-background:new 0 0 256 36;" xml:space="preserve">
<style type="text/css">
	.st0{clip-path:url(#SVGID_2_);}
	.st1{clip-path:url(#SVGID_2_);fill:#FDC304;}
	.st2{clip-path:url(#SVGID_2_);fill:#8A1D12;}
	.st3{clip-path:url(#SVGID_2_);fill:#006479;}
	.st4{clip-path:url(#SVGID_2_);fill:#017BB2;}
	.st5{clip-path:url(#SVGID_2_);fill:#009640;}
	.st6{clip-path:url(#SVGID_2_);fill:#CA9F01;}
</style>
<g>
	<g>
		<defs>
			<rect id="SVGID_1_" x="-1" y="-1" width="257.4" height="37.4"/>
		</defs>
		<clipPath id="SVGID_2_">
			<use xlink:href="#SVGID_1_"  style="overflow:visible;"/>
		</clipPath>
		<path class="st0" d="M26.6,17.7c0-9.7,8-17.4,17.8-17.4c9.9,0,17.8,7.7,17.8,17.4c0,9.7-8,17.4-17.8,17.4
			C34.5,35.1,26.6,27.4,26.6,17.7 M57.1,17.7C57.1,10.5,51.6,5,44.4,5c-7.2,0-12.8,5.5-12.8,12.7c0,7.2,5.6,12.7,12.8,12.7
			C51.6,30.4,57.1,24.9,57.1,17.7"/>
		<path class="st0" d="M88,34.4L76.4,19.8v14.6h-5V1.1h10.9c5.6,0,10,4,10,9.5c0,5.4-4.3,9.4-9.8,9.5l11.5,14.3H88z M76.4,5.8v9.6h6
			c2.9,0,5-2,5-4.8c0-2.8-2.2-4.8-5-4.8H76.4z"/>
		<polygon class="st0" points="138.2,0.4 138.2,34.4 133.2,34.4 133.2,10.7 121.5,20.4 109.7,10.6 109.7,34.4 104.8,34.4 104.8,0.4 
			104.9,0.4 121.5,14.2 138.1,0.4 		"/>
		<path class="st0" d="M168.2,24.8h-12.5l-4.4,9.6h-5.1l15.8-34h0.1l15.8,34h-5.2L168.2,24.8z M166.1,20.1l-4.1-8.9l-4.1,8.9H166.1z
			"/>
		<path class="st0" d="M185,29.7h9.8c2.8,0,5-2,5-4.8c0-2.8-2.2-4.8-5-4.8h-1.2c-5.5,0-10-4-10-9.5c0-5.4,4.5-9.5,10-9.5h9.7v4.7
			h-9.8c-2.8,0-5,2-5,4.8c0,2.8,2.2,4.8,5,4.8h1.2c5.5,0,10,4,10,9.5c0,5.4-4.5,9.5-10,9.5H185V29.7z"/>
		<polygon class="st0" points="18.6,15.4 18.6,20.1 5.4,20.1 5.4,34.4 0.6,34.4 0.6,15.3 		"/>
		<polygon class="st0" points="0.6,5.8 0.6,1.1 18.6,1.1 18.6,5.8 		"/>
		<path class="st1" d="M229.2,4.9c0,2.4-1.9,4.3-4.3,4.3c-2.4,0-4.3-1.9-4.3-4.3c0-2.4,1.9-4.3,4.3-4.3
			C227.3,0.6,229.2,2.5,229.2,4.9"/>
		<path class="st2" d="M242,4.9c0,2.4-1.9,4.3-4.3,4.3c-2.4,0-4.3-1.9-4.3-4.3c0-2.4,1.9-4.3,4.3-4.3C240.1,0.6,242,2.5,242,4.9"/>
		<path class="st3" d="M254.9,4.9c0,2.4-1.9,4.3-4.3,4.3c-2.4,0-4.3-1.9-4.3-4.3c0-2.4,1.9-4.3,4.3-4.3
			C252.9,0.6,254.9,2.5,254.9,4.9"/>
		<path class="st4" d="M229.2,17.7c0,2.4-1.9,4.3-4.3,4.3c-2.4,0-4.3-1.9-4.3-4.3c0-2.4,1.9-4.3,4.3-4.3
			C227.3,13.5,229.2,15.4,229.2,17.7"/>
		<path class="st5" d="M242,17.7c0,2.4-1.9,4.3-4.3,4.3c-2.4,0-4.3-1.9-4.3-4.3c0-2.4,1.9-4.3,4.3-4.3C240.1,13.5,242,15.4,242,17.7
			"/>
		<path class="st6" d="M229.2,30.6c0,2.4-1.9,4.3-4.3,4.3c-2.4,0-4.3-1.9-4.3-4.3c0-2.4,1.9-4.3,4.3-4.3
			C227.3,26.3,229.2,28.2,229.2,30.6"/>
	</g>
</g>
</svg>
